<?xml version="1.0" encoding="utf-8" ?><svg xmlns="http://www.w3.org/2000/svg" xmlns:xlink="http://www.w3.org/1999/xlink" width="1024" height="1024" viewBox="0 0 1024 1024"><path transform="scale(2 2)" d="M148.943 181.701C148.923 167.212 151.182 153.419 168.807 152.104C175.86 152.023 181.892 154.47 186.537 159.979C191.259 160.132 196.035 159.987 200.763 159.986L339.095 159.967C354.69 159.969 351.358 157.01 358.191 169.791C365.435 169.789 415.639 169.066 418.589 170.641C421.13 174.688 422.528 179.618 424.131 184.104L449.689 255.38C451.221 259.538 453.411 263.703 453.546 268.205C453.914 280.502 454.924 305.76 453.46 317.648C452.744 323.464 436.748 321.277 432.19 321.277L400.463 321.264L400.484 322.711C400.745 353.659 361.504 371.895 338.806 349.203C331.006 341.406 327.443 332.217 327.472 321.264L308.03 321.264L251.79 321.264C251.732 371.174 180.209 370.803 178.91 321.264L166.529 321.264L166.528 321.468C165.983 371.04 92.0422 369.503 93.2349 321.264C76.8646 321.261 58.8932 326.483 58.769 303.513L58.7605 268.649C58.7523 249.181 57.9272 253.209 64.9319 235.142L73.5689 213.174C85.553 182.448 93.1875 181.686 122.969 181.689L148.943 181.701ZM168.807 161.802C157.042 164.779 158.729 174.644 158.744 184.152L158.762 271.553L172.812 271.553L181.083 271.553L181.091 182.808C181.094 174.215 181.909 160.619 168.807 161.802ZM190.784 169.791L190.784 271.553C195.6 271.769 200.461 271.532 205.283 271.553L205.257 216.064C205.236 212.954 204.425 207.827 206.869 205.378C209.999 202.24 214.567 204.687 214.997 208.637C215.747 215.529 215.235 223.465 215.236 230.466L215.231 271.553L307.051 271.553L307.034 216.645C306.963 209.978 307.832 198.544 316.767 206.955C317.044 209.654 316.836 212.471 316.801 215.187L316.767 271.553L387.181 271.553C385.448 266.65 383.405 261.856 381.501 257.018L347.393 169.791L190.784 169.791ZM362.434 179.825C362.893 183.217 364.919 187.113 366.173 190.331L399.644 276.364C404.136 287.968 409.252 299.471 413.078 311.314L443.746 311.314L443.757 283.584C443.756 264.21 442.65 265.978 436.338 247.57C428.648 225.148 420.464 202.027 412.165 179.825L362.434 179.825ZM109.842 191.348C88.7335 192.587 85.4182 210.002 79.0286 226.708L72.3767 243.694C75.0071 242.92 77.5939 242.014 80.1874 241.127L119.243 227.784L119.243 191.348C116.119 191.341 112.961 191.236 109.842 191.348ZM129.282 191.348L128.985 191.725C129.321 202.822 130.305 220.303 129.21 231.21C128.497 238.316 108.648 242.028 101.915 244.313L68.5648 255.725L68.5796 291.051C68.5761 296.324 68.0081 303.374 68.7853 308.446C69.538 313.357 88.4382 311.313 93.2349 311.314C96.011 311.434 96.7006 306.285 97.8762 304.202C108.797 284.849 130.418 281.092 148.943 290.925L148.943 191.348L129.282 191.348ZM158.762 281.554C158.69 303.956 158.552 294.259 165.012 311.314L180.201 311.314C193.864 277.24 238.56 278.489 250.029 311.314L329.138 311.314C336.078 291.82 355.672 281.903 375.453 287.969C387.248 292.474 394.412 299.743 399.091 311.314L402.516 311.314C399.285 301.232 394.461 291.665 391.421 281.554L158.762 281.554ZM128.525 295.554C113.791 296.264 102.448 308.827 103.242 323.557C104.036 338.287 116.664 349.558 131.389 348.68C145.996 347.81 157.157 335.305 156.369 320.693C155.582 306.081 143.141 294.849 128.525 295.554ZM362.114 296.075C347.386 297.182 336.367 310.055 337.547 324.778C338.726 339.5 351.654 350.455 366.37 349.203C380.984 347.96 391.847 335.141 390.676 320.521C389.504 305.901 376.739 294.975 362.114 296.075ZM211.434 296.172C197.019 298.345 187.049 311.731 189.097 326.165C191.144 340.599 204.443 350.685 218.894 348.763C233.525 346.817 243.763 333.317 241.69 318.705C239.617 304.092 226.028 293.972 211.434 296.172Z"/><path transform="scale(2 2)" d="M130.873 338.203C121.918 338.849 114.154 332.073 113.583 323.114C113.012 314.155 119.853 306.448 128.817 305.952C137.675 305.462 145.271 312.205 145.836 321.059C146.4 329.912 139.721 337.565 130.873 338.203ZM128.343 316.047C126.133 316.514 124.347 318.137 123.671 320.292C122.996 322.447 123.536 324.799 125.084 326.444C126.632 328.089 128.948 328.77 131.14 328.226C134.447 327.404 136.487 324.084 135.724 320.762C134.961 317.441 131.677 315.343 128.343 316.047Z"/><path transform="scale(2 2)" d="M216.881 338.475C211.096 338.989 205.481 336.356 202.178 331.579C198.874 326.803 198.391 320.62 200.913 315.389C203.435 310.157 208.573 306.684 214.367 306.293C223.194 305.698 230.856 312.32 231.545 321.141C232.234 329.961 225.693 337.693 216.881 338.475ZM214.528 316.144C211.042 316.676 208.641 319.923 209.152 323.411C209.663 326.9 212.895 329.321 216.386 328.831C219.908 328.337 222.355 325.071 221.839 321.553C221.324 318.034 218.043 315.608 214.528 316.144Z"/><path transform="scale(2 2)" d="M366.625 339.035C357.653 340.4 349.252 334.297 347.775 325.343C346.299 316.388 352.296 307.911 361.231 306.323C367.111 305.278 373.099 307.476 376.906 312.078C380.713 316.679 381.751 322.973 379.623 328.553C377.494 334.134 372.529 338.138 366.625 339.035ZM362.787 316.093C359.211 316.806 356.884 320.274 357.578 323.853C358.272 327.432 361.728 329.778 365.31 329.102C368.919 328.421 371.286 324.935 370.587 321.329C369.887 317.724 366.389 315.375 362.787 316.093Z"/></svg>