<?xml version="1.0" encoding="utf-8" ?><svg xmlns="http://www.w3.org/2000/svg" xmlns:xlink="http://www.w3.org/1999/xlink" width="1024" height="1024" viewBox="0 0 1024 1024"><path transform="scale(2 2)" d="M321.385 159.86L399.323 159.879C411.748 159.943 426.316 160.404 430.342 144.719C431.256 141.157 430.889 137.377 434.758 135.71C439.519 135.649 444.284 135.677 449.046 135.679C466.2 135.688 462.32 138.387 462.314 153.861L462.381 258.323C462.313 265.921 453.227 263.742 448.064 263.705C445.566 263.687 434.86 264.67 433.077 263.101C430.533 260.862 431.719 252.62 425.782 246.693C419.106 240.027 411.78 240.711 403.048 240.708L320.301 240.712C315.298 246.494 300.901 247.235 295.389 240.712C281.391 238.731 267.427 242.794 257.345 252.989C245.116 265.354 244.649 277.173 244.683 293.005C249.603 293.636 262.869 291.532 265.975 294.589C267.731 296.317 268.227 299.909 266.326 301.721C263.628 304.295 249.35 303.046 244.683 303.051L244.683 317.216C249.533 317.489 258.907 320.701 253.481 326.448C250.398 329.712 246.685 327.132 243.041 327.313C237.473 327.59 233.382 331.117 226.741 330.853C220.44 330.603 214.649 326.384 208.805 326.633C202.936 326.882 199.478 331.279 191.271 330.732C184.836 330.302 178.75 326.483 172.997 326.607C168.83 326.696 153.074 336.667 153.971 324.804C154.376 319.451 162.596 320.508 165.767 317.81L165.808 317.216L165.808 303.051L65.0808 303.063C61.0423 303.074 56.8272 303.371 52.8133 303.072C48.5273 302.753 45.8006 297.779 49.2042 294.433C52.1011 291.586 60.3773 293.009 64.0472 293.01L165.808 293.005C165.816 262.527 164.084 238.698 179.958 211.342C200.401 176.113 234.95 159.86 274.529 159.849L294.327 159.86C298.172 153.715 316.238 151.723 321.385 159.86ZM441.791 145.747L441.791 253.634L452.259 253.634L452.259 145.747L441.791 145.747ZM431.498 161.502C421.997 169.791 412.768 169.974 400.837 169.978L323.252 169.964L323.252 230.63C325.883 230.689 328.494 230.719 331.125 230.63L404.964 230.619C415.273 230.61 423.162 230.979 431.498 237.994C431.497 231.202 431.6 161.639 431.498 161.502ZM303.278 165.486L303.278 234.29C306.46 234.314 310.048 234.673 313.184 234.29L313.184 165.486L303.278 165.486ZM269.256 169.964C222.093 169.72 182.281 205.623 176.792 252.169C175.671 261.675 175.816 271.235 175.814 280.788L175.823 316.565C188.422 318.052 187.427 323.721 201.367 317.926C217.049 313.328 223.411 324.79 234.662 318.946L234.652 295.108C234.652 289.685 234.393 284.128 234.929 278.733C237.792 249.926 260.833 229.779 289.577 229.828L293.058 229.868L293.058 169.964L269.256 169.964Z"/><path transform="scale(2 2)" d="M237.385 215.897C235.348 216.257 233.275 215.489 231.965 213.888C230.655 212.287 230.312 210.103 231.069 208.177C231.825 206.252 233.562 204.885 235.612 204.604C238.697 204.18 241.554 206.304 242.037 209.38C242.52 212.457 240.452 215.354 237.385 215.897Z"/><path transform="scale(2 2)" d="M213.618 260.27C210.5 260.867 207.485 258.834 206.868 255.719C206.252 252.604 208.266 249.576 211.376 248.94C214.515 248.298 217.577 250.334 218.199 253.477C218.82 256.62 216.765 259.669 213.618 260.27Z"/><path transform="scale(2 2)" d="M200.105 308.912C196.989 309.338 194.097 307.217 193.566 304.117C193.036 301.018 195.057 298.056 198.137 297.42C200.224 296.989 202.38 297.731 203.76 299.355C205.141 300.979 205.526 303.226 204.764 305.217C204.003 307.207 202.216 308.624 200.105 308.912Z"/><path transform="scale(2 2)" d="M275.777 341.59C271.922 341.82 264.295 342.01 260.605 341.472C254.274 340.55 254.097 334.319 259.022 331.48C262.55 331.264 271.596 331.03 274.836 331.611C280.937 332.705 280.144 338.942 275.777 341.59Z"/><path transform="scale(2 2)" d="M143.562 349.05C139.237 349.078 128.545 349.994 125.183 347.684C121.352 345.052 123.208 339.572 129.022 339.063C133.011 339.038 143.682 338.231 146.929 340.205C150.964 342.659 149.325 348.236 143.562 349.05Z"/><path transform="scale(2 2)" d="M314.437 365.703C311.278 366.625 308.37 368.176 305.375 369.514C286.987 377.728 260.458 378.238 242.002 371.222C220.859 363.184 221.58 360.613 196.92 361.883C182.633 362.618 177.697 367.586 165.487 371.963C149.564 377.67 124.298 377.746 108.38 370.726C90.3696 362.784 82.4496 360.124 61.2441 362.051C57.6921 362.374 52.0443 364.536 49.0173 361.989C46.9076 360.213 46.2792 356.933 48.3467 354.88C53.8193 349.447 86.0443 351.706 96.0119 354.662C119.125 361.518 116.565 366.595 144.471 365.597C165.315 364.851 175.633 352.082 200.125 351.673C221.622 351.432 226.312 352.862 244.863 361.278C259.688 368.004 284.201 367.175 298.889 360.96C303.757 358.9 308.471 356.353 313.549 354.829C329.26 350.113 355.534 350.349 371.086 357.556C388.03 365.407 394.662 366.912 414.539 365.498C431.78 364.271 445.33 350.934 463.03 353.251C466.341 355.398 467.536 360.145 463.257 362.218C460.225 363.687 455.894 363.38 452.557 363.905C444.36 365.195 437.167 370.394 429.319 372.872C416.015 377.073 392.668 376.916 379.495 372.49C372.909 370.278 366.981 366.546 360.383 364.366C349.706 360.838 324.269 360.807 314.437 365.703Z"/></svg>