<svg width="157" height="120" viewBox="0 0 157 120" fill="none" xmlns="http://www.w3.org/2000/svg">
<path d="M78.0547 118.022C64.6854 79.0621 53.9786 60.0193 23.4163 36.0643" stroke="#FFE75E" stroke-width="3" stroke-linecap="round"/>
<path d="M78.8354 118.022C92.0138 78.6911 102.568 59.467 132.693 35.2838" stroke="#FF4747" stroke-width="3" stroke-linecap="round"/>
<path d="M78.4453 118.022V21.2339" stroke="#4252FF" stroke-width="3" stroke-linecap="round"/>
<path d="M78.8354 0.159119L83.236 14.0099L93.0308 24.7464L78.8354 21.632L64.6399 24.7464L74.4348 14.0099L78.8354 0.159119Z" fill="black"/>
<path d="M13.3716 19.7869L24.9726 28.5407L39.1727 31.6338L25.7912 37.3037L16.0124 48.0548L17.7929 33.6312L13.3716 19.7869Z" fill="black"/>
<path d="M143.283 18.4996L139.383 32.4995L141.701 46.8464L131.527 36.4686L117.943 31.3032L132.018 27.6811L143.283 18.4996Z" fill="black"/>
</svg>
